<?xml version="1.0" encoding="utf-8"?>
<!-- Generator: Adobe Illustrator 21.0.0, SVG Export Plug-In . SVG Version: 6.00 Build 0)  -->
<svg version="1.1" id="图层_1" xmlns="http://www.w3.org/2000/svg" xmlns:xlink="http://www.w3.org/1999/xlink" x="0px" y="0px"
	 viewBox="0 0 200 200" style="enable-background:new 0 0 200 200;" xml:space="preserve">
<style type="text/css">
	.st0{fill:#F3F4F5;}
	.st1{fill:#FBFBFB;}
	.st2{fill:#EAEAEA;}
</style>
<g>
	<path class="st0" d="M32.8,153.1V54.7c0-1.9,1.3-3.5,3.1-3.9l39.8-8.8v106.4l-38,8.6C35.2,157.5,32.8,155.6,32.8,153.1z"/>
	<polygon class="st1" points="75.7,148.4 75.7,41.9 123.8,51.5 123.8,158.1 	"/>
	<path class="st2" d="M123.8,51.5l38.5-8.5c2.5-0.5,4.9,1.4,4.9,3.9v98.3c0,1.9-1.3,3.5-3.1,3.9l-40.3,9V51.5z"/>
	<path class="st2" d="M71.1,80.7c0,7.3,6.1,13.3,13.4,13.3c7.3-0.1,13.4-6.1,13.4-13.2c0-7.2-6.1-13.1-13.4-13.1
		C77.1,67.7,71.1,73.5,71.1,80.7L71.1,80.7 M84.4,112.5c-5.3-7.1-10.8-14-15.7-21.2c-7.9-11.6-0.8-26.8,12.9-28.9
		c12-1.8,22.3,7.4,21.8,19.4c-0.1,3.7-1.3,7-3.5,10c-4.9,6.6-9.8,13.2-14.7,19.8C84.9,111.8,84.7,112.1,84.4,112.5L84.4,112.5"/>
</g>
</svg>
