<?xml version="1.0" encoding="utf-8"?>
<!-- Generator: Adobe Illustrator 21.0.0, SVG Export Plug-In . SVG Version: 6.00 Build 0)  -->
<svg version="1.1" id="图层_1" xmlns="http://www.w3.org/2000/svg" xmlns:xlink="http://www.w3.org/1999/xlink" x="0px" y="0px"
	 viewBox="0 0 200 200" style="enable-background:new 0 0 200 200;" xml:space="preserve">
<style type="text/css">
	.st0{fill:#F3F4F5;}
	.st1{fill:#EAEAEA;}
	.st2{fill:#EFEFEF;}
	.st3{fill:#FBFBFB;}
</style>
<g>
	<polygon class="st0" points="167.2,109.7 32.8,109.7 68.4,41.9 131.7,41.9 	"/>
	<polygon class="st1" points="127.6,75.2 71.5,75.2 68.4,41.9 131.7,41.9 	"/>
	<path class="st0" d="M163.2,158.1H36.8c-2.2,0-4-1.8-4-4v-44.4h134.3v44.4C167.2,156.3,165.4,158.1,163.2,158.1z"/>
	<polygon class="st2" points="68.4,41.9 32.8,109.7 56.8,109.7 71.5,75.2 	"/>
	<polygon class="st2" points="131.7,41.9 167.2,109.7 143.2,109.7 127.6,75.2 	"/>
	<path class="st3" d="M127.6,75.2H71.5l-14.6,34.4h19.5c2,0,3.6,1.5,4,3.4c1.6,9.4,9.8,16.6,19.7,16.6c9.9,0,18.1-7.2,19.7-16.6
		c0.3-2,2-3.4,4-3.4h19.5L127.6,75.2z"/>
</g>
</svg>
