<?xml version="1.0" encoding="utf-8"?>
<!-- Generator: Adobe Illustrator 21.0.0, SVG Export Plug-In . SVG Version: 6.00 Build 0)  -->
<svg version="1.1" id="图层_1" xmlns="http://www.w3.org/2000/svg" xmlns:xlink="http://www.w3.org/1999/xlink" x="0px" y="0px"
	 viewBox="0 0 200 200" style="enable-background:new 0 0 200 200;" xml:space="preserve">
<style type="text/css">
	.st0{fill:#FBFBFB;}
	.st1{fill:#F3F4F5;}
	.st2{fill:#FFFFFF;}
</style>
<g>
	<path class="st0" d="M133,89.2c0-6.1,4.3-11.1,10-12.3c1.5-0.3,2.6-1.7,2.6-3.3c0-6.4,0-21.6,0-28.3c0-1.8-1.5-3.4-3.4-3.4H36.2
		c-1.8,0-3.4,1.5-3.4,3.4v28.3c0,1.6,1.1,2.9,2.6,3.3c5.7,1.2,10,6.3,10,12.3c0,6.1-4.3,11.1-10,12.3c-1.5,0.3-2.6,1.7-2.6,3.3v28.3
		c0,1.8,1.5,3.4,3.4,3.4h106.1c1.8,0,3.4-1.5,3.4-3.4v-28.3c0-1.6-1.1-2.9-2.6-3.3C137.3,100.3,133,95.3,133,89.2z"/>
	<path class="st1" d="M164.6,98.5c1.5-0.3,2.6-1.7,2.6-3.3c0-6.4,0-21.6,0-28.3c0-1.8-1.5-3.4-3.4-3.4H57.8c-1.8,0-3.4,1.5-3.4,3.4
		v28.3c0,1.6,1.1,2.9,2.6,3.3c5.7,1.2,10,6.3,10,12.3c0,6.1-4.3,11.1-10,12.3c-1.5,0.3-2.6,1.7-2.6,3.3v28.3c0,1.8,1.5,3.4,3.4,3.4
		h106.1c1.8,0,3.4-1.5,3.4-3.4v-28.3c0-1.6-1.1-2.9-2.6-3.3c-5.7-1.2-10-6.3-10-12.3C154.6,104.7,158.9,99.7,164.6,98.5z"/>
	<g>
		<rect x="76.7" y="120.2" class="st2" width="68.3" height="4"/>
		<rect x="76.7" y="97.4" class="st2" width="68.3" height="4"/>
	</g>
</g>
</svg>
