<?xml version="1.0" encoding="utf-8"?>
<!-- Generator: Adobe Illustrator 21.0.0, SVG Export Plug-In . SVG Version: 6.00 Build 0)  -->
<svg version="1.1" id="图层_1" xmlns="http://www.w3.org/2000/svg" xmlns:xlink="http://www.w3.org/1999/xlink" x="0px" y="0px"
	 viewBox="0 0 200 200" style="enable-background:new 0 0 200 200;" xml:space="preserve">
<style type="text/css">
	.st0{fill:#FBFBFB;}
	.st1{fill:#F3F4F5;}
	.st2{fill:#EAEAEA;}
</style>
<g>
	<path class="st0" d="M158.6,82C148.1,66.4,143,67.3,143,67.3h-29.5c-2.2,0-4,1.8-4,4v58c0,2.2,1.8,4,4,4h49.7c2.2,0,4-1.8,4-4
		v-27.2C167.2,102.1,167.7,95.7,158.6,82z"/>
	<path class="st1" d="M155.2,104.5l-32.1,0.3V80.6c0,0,8.4-0.4,17.5,0h0c3.9,0.1,14.6,14.3,14.6,21.6V104.5z"/>
	<path class="st1" d="M99.3,133.3H36.8c-2.2,0-4-1.8-4-4V58.1c0-2.2,1.8-4,4-4h62.5c2.2,0,4,1.8,4,4v71.2
		C103.3,131.5,101.5,133.3,99.3,133.3z"/>
	<path class="st2" d="M68.2,145.9c-7,0.2-12.8-5.3-13-12.2c-0.2-7,5.3-12.8,12.2-13c0.3,0,0.5,0,0.8,0c7,0.2,12.4,6,12.2,13
		C80.2,140.4,74.8,145.7,68.2,145.9z"/>
	<path class="st2" d="M138.4,144.7c-6.6,0-12-5.4-12-12c0-6.6,5.4-12,12-12l0,0c6.6,0,12,5.4,12,12
		C150.4,139.3,145.1,144.7,138.4,144.7z"/>
</g>
</svg>
