<?xml version="1.0" encoding="utf-8"?>
<!-- Generator: Adobe Illustrator 21.0.0, SVG Export Plug-In . SVG Version: 6.00 Build 0)  -->
<svg version="1.1" id="图层_1" xmlns="http://www.w3.org/2000/svg" xmlns:xlink="http://www.w3.org/1999/xlink" x="0px" y="0px"
	 viewBox="0 0 200 200" style="enable-background:new 0 0 200 200;" xml:space="preserve">
<style type="text/css">
	.st0{fill:#FBFBFB;}
	.st1{fill:#F3F4F5;}
</style>
<g>
	<path class="st0" d="M125.5,39.8H74.4c-1.1,0-2-0.9-2-2v-4c0-1.1,0.9-2,2-2h51.1c1.1,0,2,0.9,2,2v4
		C127.5,38.9,126.6,39.8,125.5,39.8z"/>
	<path class="st1" d="M145,35.8h-13.5c-1.1,0-2,0.9-2,2v2c0,1.1-0.9,2-2,2H72.4c-1.1,0-2-0.9-2-2v-2c0-1.1-0.9-2-2-2H55
		c-2.2,0-4,1.8-4,4v124.3c0,2.2,1.8,4,4,4h90.1c2.2,0,4-1.8,4-4V39.8C149,37.6,147.3,35.8,145,35.8z M111.7,121.6H65.8v-4h45.9
		V121.6z M134.1,98.8H65.8v-4h68.3V98.8z M134.1,76H65.8v-4h68.3V76z"/>
</g>
</svg>
