<?xml version="1.0" encoding="utf-8"?>
<!-- Generator: Adobe Illustrator 21.0.0, SVG Export Plug-In . SVG Version: 6.00 Build 0)  -->
<svg version="1.1" id="图层_1" xmlns="http://www.w3.org/2000/svg" xmlns:xlink="http://www.w3.org/1999/xlink" x="0px" y="0px"
	 viewBox="0 0 200 200" style="enable-background:new 0 0 200 200;" xml:space="preserve">
<style type="text/css">
	.st0{fill:#F3F4F5;}
	.st1{fill:#FBFBFB;}
</style>
<g>
	<path class="st0" d="M125.1,31.8H36c-1.8,0-3.2,1.4-3.2,3.2v129.2c0,2,2,4,5,4h85.5l0,0c3,0,5-2,5-5V35
		C128.3,33.3,126.9,31.8,125.1,31.8z"/>
	<path class="st1" d="M138.3,79.6c0-2.2,1.8-4,4-4h20.9c2.2,0,4,1.8,4,4v84.6c0,2.2-1.8,4-4,4h-20.9c-2.2,0-4-1.8-4-4V79.6z"/>
	<path class="st1" d="M80.6,93.8c-16,0-29-13-29-29h-4c0,18.2,14.8,33,33,33s33-14.8,33-33h-4C109.6,80.8,96.6,93.8,80.6,93.8z"/>
</g>
</svg>
