<?xml version="1.0" encoding="utf-8"?>
<!-- Generator: Adobe Illustrator 21.0.0, SVG Export Plug-In . SVG Version: 6.00 Build 0)  -->
<svg version="1.1" id="图层_1" xmlns="http://www.w3.org/2000/svg" xmlns:xlink="http://www.w3.org/1999/xlink" x="0px" y="0px"
	 viewBox="0 0 259.4 160.5" style="enable-background:new 0 0 259.4 160.5;" xml:space="preserve">
<style type="text/css">
	.st0{fill:#EEEEEE;}
	.st1{fill:#F5EDD7;}
	.st2{fill:#F0E7C7;}
	.st3{fill:#E6DDB9;}
	.st4{fill:#DECC9C;}
	.st5{fill:#E6D6B1;}
	.st6{fill:#E6D4AA;}
	.st7{fill:#EBE1C4;}
	.st8{fill:#CBB785;}
</style>
<g>
	<path class="st0" d="M229.8,155.3c0-2.9-39.4-5.2-100.3-5.2s-100.3,2.4-100.3,5.2c0,2.9,39.4,5.2,100.3,5.2
		S229.8,158.2,229.8,155.3z"/>
	<path class="st1" d="M233.7,53c-2.1-2.1-5.6-2.1-7.7,0c-2.1,2.1-2.1,5.6,0,7.7c2.1,2.1,5.6,2.1,7.7,0
		C235.8,58.6,235.8,55.2,233.7,53z M231.4,57.7c0.1,0.2,0.1,0.3,0,0.5c-0.2,0.1-0.3,0.1-0.5,0l-0.8-0.8l-0.4,0.4l0.8,0.8
		c0.1,0.2,0.1,0.3,0,0.5c-0.2,0.1-0.3,0.1-0.5,0l-0.8-0.8l-0.7,0.7c-0.3,0.2-0.5,0.2-0.8,0c-0.3-0.3-0.3-0.5,0-0.8l0.7-0.7l-0.8-0.8
		c-0.1-0.2-0.1-0.3,0-0.5c0.2-0.1,0.3-0.1,0.5,0l0.8,0.8l0.4-0.4l-0.8-0.8c-0.1-0.2-0.1-0.3,0-0.5c0.2-0.1,0.3-0.1,0.5,0l0.4,0.4
		l0.3-1.6c0-0.1,0.1-0.2,0.1-0.3c0.3-0.2,0.5-0.2,0.8,0c0.1,0.2,0.2,0.3,0.1,0.5l-0.3,1.9l1.9-0.3c0.2,0,0.3,0,0.5,0.1
		c0.2,0.3,0.2,0.5,0,0.8c-0.1,0.1-0.2,0.1-0.3,0.1l-1.6,0.3L231.4,57.7L231.4,57.7z"/>
	<path class="st2" d="M2.9,35.2C-1,39.1-1,45.5,2.9,49.4s10.3,3.9,14.2,0s3.9-10.3,0-14.2S6.9,31.3,2.9,35.2z M11.6,39.5
		c0.3-0.3,0.6-0.3,0.9,0c0.2,0.3,0.2,0.6,0,0.9l-1.4,1.4l0.7,0.7l1.4-1.4c0.3-0.3,0.6-0.3,0.9,0c0.2,0.3,0.2,0.6,0,0.9l-1.4,1.4
		l1.2,1.2c0.4,0.5,0.4,0.9-0.1,1.4s-0.9,0.5-1.4,0.1l-1.2-1.2l-1.4,1.4c-0.3,0.3-0.6,0.3-0.9,0c-0.2-0.3-0.2-0.6,0-0.9l1.4-1.4
		l-0.7-0.7l-1.5,1.4c-0.3,0.3-0.6,0.3-0.9,0c-0.2-0.3-0.2-0.6,0-0.9L8,43l-3-0.5c-0.2,0-0.4-0.1-0.6-0.3c-0.4-0.5-0.4-1,0-1.5
		c0.3-0.2,0.6-0.3,0.9-0.3L8.8,41l-0.6-3.5c-0.1-0.3,0-0.6,0.3-0.9c0.5-0.4,1-0.4,1.5,0c0.2,0.2,0.2,0.3,0.3,0.6l0.5,3L11.6,39.5
		L11.6,39.5z"/>
	<path class="st1" d="M33.3,95.8h-2.7v-2.7c0-0.8-0.7-1.5-1.5-1.5s-1.5,0.7-1.5,1.5v2.7h-2.7c-0.8,0-1.5,0.7-1.5,1.5
		s0.7,1.5,1.5,1.5h2.7v2.7c0,0.8,0.7,1.5,1.5,1.5s1.5-0.7,1.5-1.5v-2.7h2.7c0.8,0,1.5-0.7,1.5-1.5C34.8,96.5,34.2,95.8,33.3,95.8z"
		/>
	<path class="st2" d="M254.9,96.5c0.1-0.5,0-0.7-0.3-0.9l-1.5-1.5c-0.5-0.5-1.3-0.5-1.8,0l-16.5,16.5c-0.5,0.5-0.5,1.3,0,1.8
		l1.5,1.5c0.2,0.2,0.5,0.4,0.9,0.3c0.3-0.1,1.1-0.3,1.6,0.2c0.6,0.6,0.4,1.1,0.2,1.6l0,0c-0.1,0.5,0.2,0.8,0.3,0.9l1.5,1.5
		c0.5,0.5,1.3,0.5,1.8,0L259,102c0.5-0.5,0.5-1.3,0-1.8l-1.5-1.5c-0.3-0.3-0.5-0.3-0.9-0.3c-0.8,0.3-1.2,0.2-1.6-0.2
		C254.7,97.8,254.6,97.4,254.9,96.5L254.9,96.5z"/>
	<g>
		<path class="st3" d="M54.5,155.4l-15-105.3l60,25.4L54.5,155.4z"/>
		<path class="st4" d="M54.5,155.4l-15-105.3l70,105.3C109.5,155.4,54.5,155.4,54.5,155.4z"/>
		<path class="st5" d="M204.5,155.4l15-105.3l-60,25.4L204.5,155.4z"/>
		<path class="st4" d="M204.5,155.4l15-105.3l-70,105.3H204.5z"/>
		<path class="st6" d="M54.5,155.4h150L129.5,0L54.5,155.4z"/>
		<path class="st7" d="M129.5,155.4h75L129.5,0V155.4z"/>
		<path class="st8" d="M153,107.2c-0.2-1-1.2-2.1-2.2-2.3l-0.8-0.2c-1.8-0.5-3.4-1.7-4.4-3.5s-1.3-3.8-0.8-5.6l0.2-0.7
			c0.3-1-0.1-2.4-0.9-3.1c0,0-0.7-0.6-2.8-1.8c-2-1.2-2.9-1.5-2.9-1.5c-1-0.4-2.4,0-3.1,0.8l-0.5,0.6c-1.4,1.3-3.2,2.1-5.3,2.1
			c-2,0-3.9-0.8-5.3-2.1l-0.5-0.6c-0.7-0.8-2.1-1.1-3.1-0.8c0,0-0.9,0.3-2.9,1.5s-2.8,1.8-2.8,1.8c-0.8,0.7-1.2,2.1-0.9,3.1l0.2,0.7
			c0.4,1.8,0.2,3.9-0.8,5.6c-1,1.8-2.6,3-4.5,3.5l-0.7,0.2c-1,0.2-2,1.3-2.2,2.3c0,0-0.2,0.9-0.2,3.3s0.2,3.3,0.2,3.3
			c0.2,1,1.2,2.1,2.2,2.3l0.7,0.2c1.8,0.5,3.5,1.7,4.5,3.5s1.3,3.8,0.8,5.6l-0.2,0.7c-0.3,1,0.1,2.4,0.9,3.1c0,0,0.7,0.6,2.8,1.8
			c2,1.2,2.9,1.5,2.9,1.5c1,0.4,2.4,0,3.1-0.8l0.5-0.5c1.4-1.3,3.2-2.1,5.3-2.1c2.1,0,3.9,0.8,5.3,2.1l0.5,0.5
			c0.7,0.8,2.1,1.1,3.1,0.8c0,0,0.9-0.3,2.9-1.5s2.8-1.8,2.8-1.8c0.8-0.7,1.2-2.1,0.9-3.1l-0.2-0.7c-0.4-1.8-0.2-3.8,0.8-5.6
			c1-1.8,2.7-3,4.5-3.5l0.7-0.2c1-0.2,2-1.3,2.2-2.3c0,0,0.2-0.9,0.2-3.3S153,107.2,153,107.2 M129.5,119.9c-5.2,0-9.4-4.2-9.4-9.4
			c0-5.2,4.2-9.4,9.4-9.4s9.4,4.2,9.4,9.4S134.7,119.9,129.5,119.9z"/>
	</g>
</g>
</svg>
