<?xml version="1.0" encoding="utf-8"?>
<!-- Generator: Adobe Illustrator 21.0.0, SVG Export Plug-In . SVG Version: 6.00 Build 0)  -->
<svg version="1.1" id="图层_1" xmlns="http://www.w3.org/2000/svg" xmlns:xlink="http://www.w3.org/1999/xlink" x="0px" y="0px"
	 viewBox="0 0 260 160.3" style="enable-background:new 0 0 260 160.3;" xml:space="preserve">
<style type="text/css">
	.st0{fill:#EEEEEE;}
	.st1{fill:#F0E7C7;}
	.st2{fill:#DD8885;}
	.st3{fill:#C8736E;}
	.st4{fill:#F5EDD7;}
</style>
<g>
	<g>
		<path class="st0" d="M230.1,155c0-2.9-39.4-5.2-100.3-5.2S29.5,152.1,29.5,155s39.4,5.3,100.3,5.3S230.1,157.9,230.1,155z"/>
		<g>
			<path class="st1" d="M86,0.6l30.4,17.6c2.1,1.2,2.8,3.9,1.6,6L104.8,47c-1.2,2.1-3.9,2.8-6,1.6L68.4,31c-2.1-1.2-2.8-3.9-1.6-6
				L80,2.2C81.2,0.1,83.9-0.6,86,0.6z M173.5,0.6l-30.4,17.6c-2.1,1.2-2.8,3.9-1.6,6L154.7,47c1.2,2.1,3.9,2.8,6,1.6L191.1,31
				c2.1-1.2,2.8-3.9,1.6-6L179.5,2.2C178.3,0.1,175.6-0.6,173.5,0.6z"/>
			<path class="st2" d="M215.8,57.9h-172c-2.2,0-4-1.8-4-4V36.7c0-4.4,3.6-8,8-8h164c4.4,0,8,3.6,8,8v17.2
				C219.8,56.1,218,57.9,215.8,57.9z"/>
			<path class="st2" d="M201.8,155.1h-144c-4.4,0-8-3.6-8-8V57.9h160v89.2C209.8,151.5,206.2,155.1,201.8,155.1z"/>
			<rect x="49.8" y="57.9" class="st3" width="160" height="11.6"/>
			<path class="st1" d="M142.1,20L142,155h-24.5l0.1-135H142.1z"/>
			<path class="st4" d="M117.3,8h25c6.9,0,12.5,5.6,12.5,12.5l0,0V58h-50V20.5C104.8,13.6,110.4,8,117.3,8z"/>
		</g>
		<path class="st4" d="M234,52.7c-2.1-2.1-5.6-2.1-7.7,0c-2.1,2.1-2.1,5.6,0,7.7c2.1,2.1,5.6,2.1,7.7,0
			C236.1,58.3,236.1,54.9,234,52.7z M231.7,57.4c0.1,0.2,0.1,0.3,0,0.5c-0.2,0.1-0.3,0.1-0.5,0l-0.8-0.8l-0.4,0.4l0.8,0.8
			c0.1,0.2,0.1,0.3,0,0.5c-0.2,0.1-0.3,0.1-0.5,0l-0.8-0.8l-0.7,0.7c-0.3,0.2-0.5,0.2-0.8,0c-0.3-0.3-0.3-0.5,0-0.8l0.7-0.7
			l-0.8-0.8c-0.1-0.2-0.1-0.3,0-0.5c0.2-0.1,0.3-0.1,0.5,0l0.8,0.8l0.4-0.4l-0.8-0.8c-0.1-0.2-0.1-0.3,0-0.5c0.2-0.1,0.3-0.1,0.5,0
			l0.4,0.4l0.3-1.6c0-0.1,0.1-0.2,0.1-0.3c0.3-0.2,0.5-0.2,0.8,0c0.1,0.2,0.2,0.3,0.1,0.5l-0.3,1.9l1.9-0.3c0.2,0,0.3,0,0.5,0.1
			c0.2,0.3,0.2,0.5,0,0.8c-0.1,0.1-0.2,0.1-0.3,0.1l-1.6,0.3L231.7,57.4L231.7,57.4z"/>
		<path class="st1" d="M3.2,34.9c-3.9,3.9-3.9,10.3,0,14.2s10.3,3.9,14.2,0s3.9-10.3,0-14.2C13.5,31,7.2,31,3.2,34.9z M11.9,39.2
			c0.3-0.3,0.6-0.3,0.9,0c0.2,0.3,0.2,0.6,0,0.9l-1.4,1.4l0.7,0.7l1.4-1.4c0.3-0.3,0.6-0.3,0.9,0c0.2,0.3,0.2,0.6,0,0.9L13,43.1
			l1.2,1.2c0.4,0.5,0.4,0.9-0.1,1.4s-0.9,0.5-1.4,0.1l-1.2-1.2L10.1,46c-0.3,0.3-0.6,0.3-0.9,0c-0.2-0.3-0.2-0.6,0-0.9l1.4-1.4
			L9.9,43l-1.4,1.4c-0.3,0.3-0.6,0.3-0.9,0c-0.2-0.3-0.2-0.6,0-0.9l0.8-0.8l-3-0.5c-0.2,0-0.4-0.1-0.6-0.3c-0.4-0.5-0.4-1,0-1.5
			c0.3-0.2,0.6-0.3,0.9-0.3l3.5,0.6l-0.7-3.4c-0.1-0.3,0-0.6,0.3-0.9c0.5-0.4,1-0.4,1.5,0c0.2,0.2,0.2,0.3,0.3,0.6l0.5,3L11.9,39.2
			L11.9,39.2z"/>
		<path class="st4" d="M33.6,95.5h-2.7v-2.7c0-0.8-0.7-1.5-1.5-1.5s-1.5,0.7-1.5,1.5v2.7h-2.7c-0.8,0-1.5,0.7-1.5,1.5
			s0.7,1.5,1.5,1.5h2.7v2.7c0,0.8,0.7,1.5,1.5,1.5s1.5-0.7,1.5-1.5v-2.7h2.7c0.8,0,1.5-0.7,1.5-1.5S34.5,95.5,33.6,95.5z"/>
		<path class="st1" d="M255.2,96.2c0.1-0.5,0-0.7-0.3-0.9l-1.5-1.5c-0.5-0.5-1.3-0.5-1.8,0l-16.5,16.5c-0.5,0.5-0.5,1.3,0,1.8
			l1.5,1.5c0.2,0.2,0.5,0.4,0.9,0.3c0.3-0.1,1.1-0.3,1.6,0.2c0.6,0.6,0.4,1.1,0.2,1.6l0,0c-0.1,0.5,0.2,0.8,0.3,0.9l1.5,1.5
			c0.5,0.5,1.3,0.5,1.8,0l16.4-16.4c0.5-0.5,0.5-1.3,0-1.8l-1.5-1.5c-0.3-0.3-0.5-0.3-0.9-0.3c-0.8,0.3-1.2,0.2-1.6-0.2
			C255,97.5,254.9,97.1,255.2,96.2L255.2,96.2z"/>
	</g>
</g>
</svg>
