<?xml version="1.0" encoding="utf-8"?>
<!-- Generator: Adobe Illustrator 21.0.0, SVG Export Plug-In . SVG Version: 6.00 Build 0)  -->
<svg version="1.1" id="图层_1" xmlns="http://www.w3.org/2000/svg" xmlns:xlink="http://www.w3.org/1999/xlink" x="0px" y="0px"
	 viewBox="0 0 260 160.3" style="enable-background:new 0 0 260 160.3;" xml:space="preserve">
<style type="text/css">
	.st0{fill:#EEEEEE;}
	.st1{fill:#F5EDD7;}
	.st2{fill:#F0E7C7;}
	.st3{fill:#C8736E;}
	.st4{fill:#DD8885;}
	.st5{opacity:0.15;fill:#FFFFFF;enable-background:new    ;}
</style>
<g>
	<g>
		<path class="st0" d="M215.5,155.1c0-2.9-155.8-5.2-162.9-5.2S41,152.3,41,155.1c0,2.9,4.6,5.2,11.6,5.2S215.5,158,215.5,155.1z"/>
		<path class="st1" d="M234.2,52.8c-2.1-2.1-5.6-2.1-7.7,0c-2.1,2.1-2.1,5.6,0,7.7s5.6,2.1,7.7,0C236.3,58.4,236.3,54.9,234.2,52.8z
			 M231.9,57.5c0.1,0.2,0.1,0.3,0,0.5c-0.2,0.1-0.3,0.1-0.5,0l-0.8-0.8l-0.4,0.4l0.8,0.8c0.1,0.2,0.1,0.3,0,0.5
			c-0.2,0.1-0.3,0.1-0.5,0l-0.8-0.8l-0.7,0.7c-0.3,0.2-0.5,0.2-0.8,0c-0.3-0.3-0.3-0.5,0-0.8l0.7-0.7l-0.8-0.8
			c-0.1-0.2-0.1-0.3,0-0.5c0.2-0.1,0.3-0.1,0.5,0l0.8,0.8l0.4-0.4l-0.8-0.8c-0.1-0.2-0.1-0.3,0-0.5c0.2-0.1,0.3-0.1,0.5,0l0.4,0.4
			l0.3-1.6c0-0.1,0.1-0.2,0.1-0.3c0.3-0.2,0.5-0.2,0.8,0c0.1,0.2,0.2,0.3,0.1,0.5l-0.3,1.9l1.9-0.3c0.2,0,0.3,0,0.5,0.1
			c0.2,0.3,0.2,0.5,0,0.8c-0.1,0.1-0.2,0.1-0.3,0.1l-1.6,0.3L231.9,57.5L231.9,57.5z"/>
		<path class="st2" d="M3.4,35c-3.9,3.9-3.9,10.3,0,14.2s10.3,3.9,14.2,0s3.9-10.3,0-14.2S7.4,31.1,3.4,35z M12.1,39.3
			c0.3-0.3,0.6-0.3,0.9,0c0.2,0.3,0.2,0.6,0,0.9l-1.4,1.4l0.7,0.7l1.4-1.4c0.3-0.3,0.6-0.3,0.9,0c0.2,0.3,0.2,0.6,0,0.9L13,43.1
			l1.2,1.2c0.4,0.5,0.4,0.9-0.1,1.4s-0.9,0.5-1.4,0.1l-1.2-1.2L10.1,46c-0.3,0.3-0.6,0.3-0.9,0c-0.2-0.2-0.2-0.5,0-0.8l1.4-1.4
			L10,43.1l-1.4,1.4c-0.3,0.3-0.6,0.3-0.9,0c-0.2-0.3-0.2-0.6,0-0.9l0.8-0.8l-3-0.5c-0.2,0-0.4-0.1-0.6-0.3c-0.4-0.5-0.4-1,0-1.5
			c0.3-0.2,0.6-0.3,0.9-0.3l3.5,0.6l-0.6-3.5c-0.1-0.3,0-0.6,0.3-0.9c0.5-0.4,1-0.4,1.5,0c0.2,0.2,0.2,0.3,0.3,0.6l0.5,3L12.1,39.3
			L12.1,39.3z"/>
		<path class="st1" d="M33.8,95.6h-2.7v-2.7c0-0.8-0.7-1.5-1.5-1.5s-1.5,0.7-1.5,1.5v2.7h-2.7c-0.8,0-1.5,0.7-1.5,1.5
			s0.7,1.5,1.5,1.5h2.7v2.7c0,0.8,0.7,1.5,1.5,1.5s1.5-0.7,1.5-1.5v-2.7h2.7c0.8,0,1.5-0.7,1.5-1.5S34.7,95.6,33.8,95.6z"/>
		<path class="st2" d="M255.4,96.3c0.1-0.5,0-0.7-0.3-0.9l-1.5-1.5c-0.5-0.5-1.3-0.5-1.8,0l-16.5,16.5c-0.5,0.5-0.5,1.3,0,1.8
			l1.5,1.5c0.2,0.2,0.5,0.4,0.9,0.3c0.3-0.1,1.1-0.3,1.6,0.2c0.6,0.6,0.4,1.1,0.2,1.6l0,0c-0.1,0.5,0.2,0.8,0.3,0.9l1.5,1.5
			c0.5,0.5,1.3,0.5,1.8,0l16.4-16.4c0.5-0.5,0.5-1.3,0-1.8l-1.5-1.5c-0.3-0.3-0.5-0.3-0.9-0.3c-0.8,0.3-1.2,0.2-1.6-0.2
			C255.2,97.6,255.1,97.2,255.4,96.3L255.4,96.3z"/>
		<g>
			<path class="st2" d="M54.1,30.4v60c0,0,7.5-15.8,40.6-11.4c0,0,42,11.1,60.8,12.6c0,0,30.8,3.5,64.8-4.1L197.1,65
				c0,0,17.6-34.3,20.2-36.9c0,0-32,5.6-65.1,1.2c0,0-32.1-5-44.7-8.2C107.6,21,68.9,9.3,54.1,30.4z"/>
			<path class="st3" d="M173.8,82.3c-10.3,0-17-0.7-17.1-0.7h-0.4c-17.6-1.4-58.6-12.2-59-12.3l-0.6-0.2L96.1,69
				c-4.3-0.6-8.5-0.9-12.3-0.9c-7.9,0-14.3,1.2-19.5,2.9V34.1c4.2-4.1,11-6.2,20.3-6.2c10.6,0,20,2.8,20.1,2.8l0.2,0.1l0.2,0.1
				c12.9,3.3,44.3,8.2,45.6,8.4h0.2c8.9,1.2,18.5,1.8,28.5,1.8c7,0,13.5-0.3,19.1-0.7c-2.7,5.1-6.2,11.7-10.4,20l-3.4,6.7l14.2,13.7
				C189.1,82,180.4,82.3,173.8,82.3z"/>
			<g>
				<path class="st4" d="M215.5,84.1l-1.7-1.2c-11.8,2.2-32.2,2.7-40,2.7c-10.3,0-17.2-0.7-17.5-0.8h-0.2
					c-18-1.4-59.3-12.3-59.7-12.4l-0.7-0.1c-4.2-0.6-8.2-0.8-11.9-0.8c-5.8,0-19.9,1-29.6,10.2v2.1C63.5,74,78,73,83.8,73
					c3.7,0,7.6,0.3,11.7,0.8l0.5,0c0.5,0.1,41.9,11.1,60,12.5h0.2c0.3,0,7.2,0.8,17.6,0.8C182,87.1,203.8,86.5,215.5,84.1z"/>
				<path class="st4" d="M54.1,36.1v2.7c7.3-11.6,20.5-14.2,30.5-14.2c11,0,21,2.9,21.1,3l0.3,0.1c12.4,3.2,41.6,7.8,45.5,8.4
					c8.8,1.2,18.2,1.8,28.1,1.8c0.9,0,1.8,0,2.7,0c6.5,0,13.7,0.1,27.9-1.9c0.6-0.6,1.1-1.2,1.7-1.8c-15.3,2.3-22.8,2.2-29.5,2.2
					c-0.9,0-1.8,0-2.7,0c-9.8,0-19.2-0.6-27.9-1.7c-3.8-0.5-32.9-5.2-45.2-8.3l-0.2-0.1c-0.1,0-10.3-3-21.5-3
					C74.8,23.1,62,25.5,54.1,36.1z"/>
			</g>
			<path class="st5" d="M152.3,29.2c0,0-32.1-5-44.7-8.2c0,0-38.7-11.7-53.5,9.4v60c0,0,7.5-15.8,40.6-11.4c0,0,2,0.5,5.3,1.4
				l66.1-49.8C161.6,30.3,157,29.9,152.3,29.2z"/>
			<rect x="45.4" y="11.9" class="st3" width="11.4" height="143.3"/>
			<circle class="st4" cx="51.1" cy="10.8" r="10.8"/>
		</g>
	</g>
</g>
</svg>
