<?xml version="1.0" encoding="utf-8"?>
<!-- Generator: Adobe Illustrator 21.0.0, SVG Export Plug-In . SVG Version: 6.00 Build 0)  -->
<svg version="1.1" id="图层_1" xmlns="http://www.w3.org/2000/svg" xmlns:xlink="http://www.w3.org/1999/xlink" x="0px" y="0px"
	 viewBox="0 0 260 160.3" style="enable-background:new 0 0 260 160.3;" xml:space="preserve">
<style type="text/css">
	.st0{fill:#EEEEEE;}
	.st1{fill:#F5EDD7;}
	.st2{fill:#F0E7C7;}
	.st3{fill:#EACE9B;}
	.st4{fill:#DDC399;}
	.st5{fill:#E6E6E6;}
	.st6{fill:#F2F2F2;}
	.st7{fill:#CCCCCC;}
	.st8{fill:#FFF1DE;}
	.st9{fill:#B3B3B3;}
	.st10{fill:#FFE7C0;}
</style>
<g>
	<g>
		<path class="st0" d="M230.1,155.1c0-2.9-39.4-5.2-100.3-5.2s-100.3,2.3-100.3,5.2c0,2.9,39.4,5.2,100.3,5.2
			S230.1,157.9,230.1,155.1z"/>
		<path class="st1" d="M234,52.7c-2.1-2.1-5.6-2.1-7.7,0c-2.1,2.1-2.1,5.6,0,7.7s5.6,2.1,7.7,0C236.1,58.3,236.1,54.9,234,52.7z
			 M231.7,57.4c0.1,0.2,0.1,0.3,0,0.5c-0.2,0.1-0.3,0.1-0.5,0l-0.8-0.8l-0.4,0.4l0.8,0.8c0.1,0.2,0.1,0.3,0,0.5
			c-0.2,0.1-0.3,0.1-0.5,0l-0.8-0.8l-0.7,0.7c-0.3,0.2-0.5,0.2-0.8,0c-0.3-0.3-0.3-0.5,0-0.8l0.7-0.7l-0.8-0.8
			c-0.1-0.2-0.1-0.3,0-0.5c0.2-0.1,0.3-0.1,0.5,0l0.8,0.8l0.4-0.4l-0.8-0.8c-0.1-0.2-0.1-0.3,0-0.5c0.2-0.1,0.3-0.1,0.5,0l0.4,0.4
			l0.3-1.6c0-0.1,0.1-0.2,0.1-0.3c0.3-0.2,0.5-0.2,0.8,0c0.1,0.2,0.2,0.3,0.1,0.5l-0.3,1.9l1.9-0.3c0.2,0,0.3,0,0.5,0.1
			c0.2,0.3,0.2,0.5,0,0.8c-0.1,0.1-0.2,0.1-0.3,0.1l-1.6,0.3L231.7,57.4L231.7,57.4z"/>
		<path class="st2" d="M3.2,34.9c-3.9,3.9-3.9,10.3,0,14.2s10.3,3.9,14.2,0s3.9-10.3,0-14.2C13.5,31,7.2,31,3.2,34.9z M11.9,39.2
			c0.3-0.3,0.6-0.3,0.9,0c0.2,0.3,0.2,0.6,0,0.9l-1.4,1.4l0.7,0.7l1.4-1.4c0.3-0.3,0.6-0.3,0.9,0c0.2,0.3,0.2,0.6,0,0.9L13,43.1
			l1.2,1.2c0.4,0.5,0.4,0.9-0.1,1.4s-0.9,0.5-1.4,0.1l-1.2-1.2L10.1,46c-0.3,0.3-0.6,0.3-0.9,0c-0.2-0.3-0.2-0.6,0-0.9l1.4-1.4
			L9.9,43l-1.4,1.4c-0.3,0.3-0.6,0.3-0.9,0c-0.2-0.3-0.2-0.6,0-0.9l0.8-0.8l-3-0.5c-0.2,0-0.4-0.1-0.6-0.3c-0.4-0.5-0.4-1,0-1.5
			c0.3-0.2,0.6-0.3,0.9-0.3l3.5,0.6l-0.6-3.5c-0.1-0.3,0-0.6,0.3-0.9c0.5-0.4,1-0.4,1.5,0c0.2,0.2,0.2,0.3,0.3,0.6l0.5,3L11.9,39.2
			L11.9,39.2z"/>
		<path class="st1" d="M33.6,95.6h-2.7v-2.7c0-0.8-0.7-1.5-1.5-1.5s-1.5,0.7-1.5,1.5v2.7h-2.7c-0.8,0-1.5,0.7-1.5,1.5
			s0.7,1.5,1.5,1.5h2.7v2.7c0,0.8,0.7,1.5,1.5,1.5s1.5-0.7,1.5-1.5v-2.7h2.7c0.8,0,1.5-0.7,1.5-1.5C35.1,96.2,34.5,95.6,33.6,95.6z"
			/>
		<path class="st2" d="M255.2,96.2c0.1-0.5,0-0.7-0.3-0.9l-1.5-1.5c-0.5-0.5-1.3-0.5-1.8,0l-16.5,16.5c-0.5,0.5-0.5,1.3,0,1.8
			l1.5,1.5c0.2,0.2,0.5,0.4,0.9,0.3c0.3-0.1,1.1-0.3,1.6,0.2c0.6,0.6,0.4,1.1,0.2,1.6l0,0c-0.1,0.5,0.2,0.8,0.3,0.9l1.5,1.5
			c0.5,0.5,1.3,0.5,1.8,0l16.4-16.4c0.5-0.5,0.5-1.3,0-1.8l-1.5-1.5c-0.3-0.3-0.5-0.3-0.9-0.3c-0.8,0.3-1.2,0.2-1.6-0.2
			C255,97.5,254.9,97.1,255.2,96.2L255.2,96.2z"/>
		<g>
			<polygon class="st3" points="219.8,51.7 129.8,0 39.8,51.7 			"/>
			<rect x="39.8" y="51.7" class="st4" width="180" height="103.4"/>
			<rect x="50.1" y="16.5" class="st5" width="159.5" height="138.5"/>
			<polygon class="st6" points="184.6,16.5 50.1,121.1 50.1,16.5 			"/>
			<g>
				<rect x="62.1" y="35.5" class="st7" width="45" height="5.3"/>
				<rect x="62.1" y="53.4" class="st7" width="135.4" height="5.3"/>
				<rect x="62.1" y="62.4" class="st7" width="135.4" height="5.3"/>
				<rect x="62.1" y="71.3" class="st7" width="135.4" height="5.3"/>
				<rect x="62.1" y="80.3" class="st7" width="135.4" height="5.3"/>
				<rect x="62.1" y="89.2" class="st7" width="135.4" height="5.3"/>
				<rect x="62.1" y="98.2" class="st7" width="135.4" height="5.3"/>
				<rect x="62.1" y="107.1" class="st7" width="135.4" height="5.3"/>
			</g>
			<polygon class="st3" points="219.8,155 39.8,155 39.8,51.7 129.8,103.4 219.8,51.7 			"/>
			<polygon class="st8" points="39.8,155 39.8,51.7 129.8,103.4 			"/>
			<polygon class="st4" points="219.8,148.2 134.8,100.5 219.8,155 			"/>
			<polygon class="st9" points="129.8,99.7 50.1,57.6 129.8,103.4 			"/>
			<polygon class="st10" points="219.8,155 129.8,97 39.8,155 			"/>
		</g>
	</g>
</g>
</svg>
