<?xml version="1.0" encoding="utf-8"?>
<!-- Generator: Adobe Illustrator 21.0.0, SVG Export Plug-In . SVG Version: 6.00 Build 0)  -->
<svg version="1.1" id="图层_1" xmlns="http://www.w3.org/2000/svg" xmlns:xlink="http://www.w3.org/1999/xlink" x="0px" y="0px"
	 viewBox="0 0 362 74" style="enable-background:new 0 0 362 74;" xml:space="preserve">
<style type="text/css">
	.st0{fill:#FFFFFF;}
	.st1{fill:#F6FF00;}
</style>
<path class="st0" d="M3.1,5.4c0.9-0.9,2.1-1.3,3.6-1.3h9.6c1.7-0.2,3.1,0.2,4,1.2c0.9,0.9,1.4,1.9,1.4,3c0,1-0.2,2.1-0.7,3.2
	l-4.7,16c-0.4,0.7-0.6,1.3-0.6,1.8c0,0.6,0.4,1.4,1.2,2.4c0.5,0.6,1,1.3,1.4,2c0.8,1.1,1.7,2.5,2.5,4.1c1,1.8,1.7,3.5,2.1,5.3
	c0.4,1.8,0.5,3.5,0.5,5.2c0,1.9-0.3,3.4-0.8,4.5c-0.6,1-1.2,1.8-1.9,2.4c-0.9,0.8-2.1,1.5-3.4,2c-1.4,0.6-2.9,0.9-4.5,0.9
	c-1.2,0.1-2.7-0.2-4.4-0.6c-0.9-0.2-1.9-0.7-3.1-1.3v15.2c-0.1,0.6-0.3,1.1-0.6,1.4c-0.3,0.4-0.7,0.5-1.3,0.5c-0.6,0-1-0.2-1.3-0.5
	c-0.3-0.4-0.5-0.9-0.5-1.4V9.2C1.6,7.5,2.1,6.2,3.1,5.4L3.1,5.4z M5.3,51.1c2.9,1.9,5.2,3,6.9,3.1c1.4,0.1,2.6-0.2,3.8-0.7
	c1.5-0.8,2.4-1.6,2.9-2.3c0.5-0.9,0.8-2.3,0.8-4.2c0.1-1.4,0-2.5-0.2-3.3c-0.3-1.1-0.8-2.3-1.5-3.8c-0.8-1.5-1.8-3-2.8-4.5
	c-0.8-1.1-1.4-2-1.7-2.6c-0.9-1-1.4-2-1.5-3c-0.1-0.8,0.1-1.7,0.5-2.5l4.8-15.8c1.3-2.6,0.5-3.9-2.2-3.8H7.7c-0.8,0-1.5,0.3-2,0.8
	c-0.3,0.4-0.4,0.9-0.4,1.6L5.3,51.1L5.3,51.1z M31.5,5.4c0.9-0.9,2.2-1.3,3.9-1.3H59c1.6,0.1,2.9,0.6,3.9,1.6c0.8,0.8,1.2,2,1.2,3.4
	v21.1c-0.1,1.7-0.6,3-1.6,4c-0.9,0.9-2.2,1.4-3.9,1.4H47.2c0.5,3.1,1.3,6.6,2.6,10.3c0.8,2.2,1.6,4.2,2.4,6.1
	c4.6-2.8,8.4-5.7,11.3-8.8c0.4-0.5,0.9-0.7,1.4-0.7c0.5,0.1,1,0.3,1.3,0.6c0.4,0.4,0.6,0.8,0.6,1.3c-0.1,0.6-0.3,1-0.6,1.4
	c-3.2,3.3-7.2,6.4-12.2,9.5l0.1,0.1c1.8,2.9,4.1,5.5,6.6,7.9c2.8,2.7,5.3,4.6,7.3,5.8c0.5,0.4,0.9,0.8,1,1.3c0,0.5-0.1,0.9-0.3,1.4
	c-0.3,0.5-0.7,0.7-1.2,0.8c-0.5,0.1-1,0-1.5-0.4c-2-1.1-4.5-3.2-7.6-6c-3-2.8-5.4-5.6-7.2-8.4c-1.8-2.8-3.4-6.3-4.9-10.3
	c-1.3-4.2-2.3-8-3-11.5c-0.1-0.1-0.1-0.2-0.1-0.2h-9.7v31.1c0.1,0.5,0.2,0.8,0.4,1c0.4,0.2,0.9,0.1,1.6-0.1
	c4.4-1.1,8.5-2.6,12.5-4.4c0.6-0.3,1.1-0.4,1.7-0.2c0.4,0.2,0.7,0.6,0.9,1.1c0.2,0.5,0.1,1-0.1,1.3c-0.2,0.4-0.6,0.8-1.2,1.1
	c-3.8,1.9-8.8,3.6-14.8,5.2c-0.8,0.3-1.6,0.4-2.2,0.3c-0.8-0.1-1.4-0.5-1.9-1.2c-0.4-0.8-0.6-1.6-0.6-2.4v-4.5V9.4
	C30,7.7,30.5,6.4,31.5,5.4L31.5,5.4z M60.3,18.2v-8.1c0-1.6-0.8-2.3-2.4-2.3H36.3c-1.7-0.1-2.6,0.8-2.6,2.5v7.9L60.3,18.2L60.3,18.2
	z M33.7,21.8v10.1h23.7c1.9,0,2.9-1,2.9-2.9v-7.2L33.7,21.8L33.7,21.8z M187.8,67c-0.2,0.9-0.5,1.9-1,2.9c-0.6,1.1-1.6,2-2.9,2.4
	c-1.4,0.5-2.9,0.7-4.5,0.7c-2.1-0.1-5.1-0.5-9.1-1.3c-0.6-0.2-1.1-0.4-1.4-0.8c-0.2-0.4-0.3-0.9-0.2-1.4c0.2-0.6,0.5-1,0.9-1.2
	c0.5-0.2,1-0.2,1.5-0.2c3.6,0.8,6.2,1.1,7.7,1.1c1.4,0,2.6-0.2,3.6-0.5c0.8-0.2,1.4-0.9,1.7-2c0.3-0.8,0.4-2,0.4-3.4V19.6h-23.4
	c-0.6,0-1.1-0.2-1.4-0.5c-0.3-0.4-0.5-0.8-0.5-1.3c0-0.5,0.2-1,0.5-1.3c0.4-0.3,0.9-0.5,1.4-0.5h23.4V3.1c0-0.6,0.2-1.1,0.5-1.5
	c0.4-0.4,0.8-0.5,1.3-0.5c0.5,0,1,0.2,1.3,0.5c0.4,0.4,0.6,0.9,0.6,1.6V16h10.1c0.5,0,1,0.2,1.3,0.5c0.3,0.4,0.5,0.8,0.5,1.3
	c0,0.5-0.2,1-0.5,1.3c-0.4,0.4-0.8,0.5-1.3,0.5h-10.1v43.6C188.1,64.7,188,65.9,187.8,67L187.8,67z M163.5,35.8
	c-0.3-0.5-0.3-1-0.2-1.6c0.2-0.5,0.5-0.8,0.9-1c0.6-0.3,1.1-0.3,1.4-0.2c0.5,0.2,0.9,0.6,1.2,1.1c2.5,4.8,4.4,10.7,5.9,17.6
	c0.1,0.6,0,1.1-0.2,1.5c-0.3,0.5-0.7,0.8-1.2,0.9c-0.6,0.1-1.1,0.1-1.4-0.2c-0.4-0.3-0.7-0.7-0.9-1.4
	C167.8,45.9,165.9,40.3,163.5,35.8L163.5,35.8z M224.6,72.6c-0.3,0.3-0.7,0.5-1.2,0.5c-0.5,0-0.9-0.2-1.2-0.5
	c-0.3-0.4-0.5-0.8-0.5-1.3V34.5c-1.2,2.6-2.2,4.7-3,6.4c-2.3,4.4-4.7,8.1-7,11.3c-0.4,0.5-0.8,0.7-1.3,0.8c-0.5,0-0.9-0.1-1.3-0.3
	c-0.4-0.4-0.6-0.7-0.6-1.1c-0.1-0.5,0.1-0.9,0.4-1.4c3.4-4.4,6-8.2,7.7-11.3c1.5-2.7,3-6.4,4.7-11.2h-9.9c-0.5,0-0.9-0.2-1.3-0.5
	c-0.3-0.3-0.5-0.7-0.5-1.3c0-0.5,0.2-0.9,0.5-1.2c0.3-0.3,0.7-0.5,1.3-0.5h10.3V9.3c-3,0.5-6.1,0.8-9.3,1c-0.5,0.1-1-0.1-1.3-0.4
	c-0.4-0.3-0.6-0.7-0.6-1.2c-0.1-0.5,0.1-0.9,0.4-1.3c0.4-0.3,0.8-0.5,1.3-0.5c7.8-0.4,14.6-1.5,20.4-3.4c0.6-0.2,1.1-0.1,1.4,0.1
	c0.4,0.2,0.7,0.5,0.9,1c0.1,0.5,0.1,0.9-0.2,1.3c-0.2,0.4-0.6,0.7-1.1,0.9c-2.7,0.8-5.6,1.6-8.6,2.2c0.1,0.1,0.1,0.2,0.1,0.4v14.9h9
	c0.5,0.1,0.9,0.2,1.2,0.4c0.3,0.3,0.5,0.7,0.5,1.3c0,0.5-0.2,0.9-0.5,1.2c-0.3,0.4-0.7,0.5-1.2,0.5h-9v1.5c4,6,7.4,11.2,10.1,15.6
	c0.2,0.4,0.2,0.8,0.2,1.3c-0.1,0.5-0.3,0.8-0.8,1c-0.5,0.3-0.9,0.4-1.3,0.2c-0.4-0.2-0.7-0.5-1.1-1c-1.9-3.5-4.3-7.5-7.1-11.9v36.9
	C225.2,71.8,225,72.2,224.6,72.6L224.6,72.6z M269.4,41.1c0.2-0.6,0.4-1,0.8-1.2c0.4-0.3,0.9-0.4,1.3-0.3c0.5,0.2,0.9,0.5,1.1,0.9
	c0.2,0.4,0.2,0.9,0.2,1.3c-0.5,4.1-1.6,8.2-3.2,12.3c-1.7,4.3-4.1,7.9-7.2,10.7c-2.7,2.6-6.2,4.5-10.3,5.7
	c-3.9,1.3-9.3,2.1-16.2,2.4c-0.7,0.2-1.2,0.1-1.6-0.3c-0.4-0.4-0.6-0.8-0.6-1.3c0-0.6,0.2-1.1,0.6-1.4c0.4-0.3,0.9-0.5,1.4-0.6
	c7.1-0.4,12.2-1.1,15.4-2.1c3.8-1.1,7.1-3.1,9.9-5.8c1.9-1.8,3.4-3.7,4.4-5.7c1.1-2.1,2-4.4,2.7-6.8C268.5,46.9,269,44.3,269.4,41.1
	L269.4,41.1z M245.9,17.1c0.4-0.3,0.8-0.4,1.3-0.3c0.5,0.1,0.9,0.3,1.1,0.6c0.3,0.4,0.4,0.9,0.3,1.4c-0.4,2-1.3,5.5-2.5,10.6
	c-1.2,4.8-2.4,9.1-3.7,12.9c-0.3,0.5-0.6,0.9-0.9,1.1c-0.4,0.2-0.8,0.2-1.3,0.1c-0.5-0.2-0.8-0.5-1-0.9c-0.2-0.4-0.2-0.9,0-1.4
	c1.4-3.7,2.7-8,3.9-12.9c1.3-5.2,2-8.5,2.2-9.9C245.4,17.8,245.6,17.4,245.9,17.1L245.9,17.1z M259,48.7c0,0.5-0.2,1-0.6,1.3
	c-0.3,0.3-0.7,0.5-1.2,0.5c-0.5,0-0.9-0.2-1.2-0.5c-0.3-0.4-0.5-0.8-0.5-1.3v-46c0.1-0.5,0.2-0.9,0.4-1.3c0.3-0.3,0.7-0.5,1.3-0.5
	c0.5,0,0.9,0.2,1.2,0.5c0.4,0.3,0.6,0.7,0.6,1.3L259,48.7L259,48.7z M267.3,16.9c0.2-0.5,0.4-0.8,0.8-1c0.5-0.2,0.9-0.3,1.3-0.2
	c0.5,0.2,0.9,0.5,1.2,0.9c3.7,5.6,7,12.6,9.7,21c0.2,0.6,0.2,1,0,1.4c-0.2,0.4-0.6,0.7-1,0.9c-0.5,0.2-0.9,0.1-1.3-0.1
	c-0.4-0.3-0.7-0.7-0.9-1.2c-2.6-8-5.7-14.7-9.4-20.2C267.4,17.9,267.3,17.4,267.3,16.9L267.3,16.9z M324.9,31.2
	c0-0.6,0.2-1.1,0.5-1.5c0.4-0.4,0.8-0.5,1.3-0.5c0.5,0,1,0.2,1.3,0.5c0.4,0.4,0.6,0.9,0.6,1.6v5.7h30c0.5,0,1,0.2,1.3,0.5
	c0.3,0.4,0.5,0.8,0.5,1.3c0,0.5-0.2,1-0.5,1.3c-0.4,0.4-0.8,0.5-1.3,0.5h-30v22.1c0,1.4-0.1,2.7-0.2,3.8c-0.2,0.9-0.5,1.9-1,2.9
	c-0.5,0.9-1.3,1.6-2.4,2c-1.2,0.4-2.4,0.6-3.7,0.6c-1.7-0.1-4.3-0.4-7.6-1.1c-0.7-0.1-1.1-0.4-1.3-0.9c-0.2-0.4-0.3-0.9-0.2-1.4
	c0.2-0.5,0.5-0.9,0.9-1.1c0.4-0.2,0.9-0.2,1.6-0.2c2.8,0.6,4.8,0.9,5.9,0.9c1.1-0.1,2-0.2,2.8-0.4c0.7-0.3,1.1-0.8,1.3-1.6
	c0.3-0.8,0.4-2,0.4-3.4V40.6h-31.7c-0.6,0-1.1-0.2-1.4-0.5c-0.3-0.4-0.5-0.8-0.5-1.3c0-0.5,0.2-1,0.5-1.3c0.4-0.3,0.9-0.5,1.4-0.5
	h31.7L324.9,31.2L324.9,31.2z M311.1,49.4c0.4-0.5,0.8-0.7,1.3-0.8c0.5-0.1,1,0.1,1.3,0.5c0.4,0.4,0.7,0.8,0.7,1.3
	c-0.1,0.5-0.3,1-0.6,1.5c-3.6,4-6.8,7-9.7,9.1c-3.2,2.3-6.2,4.1-8.9,5.2c-0.6,0.3-1.2,0.3-1.7,0.1c-0.4-0.2-0.7-0.5-0.9-1
	c-0.2-0.6-0.2-1,0-1.4c0.2-0.5,0.6-0.8,1.1-1c3.5-1.6,6.5-3.3,9-5.2C305.7,55.3,308.5,52.5,311.1,49.4L311.1,49.4z M326.3,16
	c-7.8-4.2-15.4-7.7-22.7-10.3c-0.6-0.2-1.1-0.5-1.3-1c-0.2-0.4-0.2-0.9,0-1.4c0.3-0.5,0.6-0.9,0.9-1c0.5-0.2,1.1-0.2,1.6,0
	c8.1,2.9,16.4,6.8,24.9,11.7c5.3-3.6,10.4-7.8,15.6-12.6c0.5-0.4,0.9-0.6,1.4-0.5c0.5,0,1,0.2,1.3,0.5c0.3,0.4,0.5,0.9,0.5,1.3
	c-0.1,0.6-0.3,1-0.8,1.4c-5.3,4.5-10.3,8.4-14.9,11.6c6.1,3.5,12.4,7.6,18.9,12.1c0.5,0.3,0.8,0.7,0.9,1.2c0.1,0.5,0,1-0.2,1.5
	c-0.3,0.5-0.7,0.7-1.2,0.8c-0.5,0.1-1.1,0-1.6-0.4c-6.9-5-13.6-9.3-20.1-13c-2.4,1.5-4.7,2.8-6.8,4c-8.2,4.5-15.5,7.6-22,9.2
	c-0.6,0.2-1.2,0.1-1.7-0.1c-0.4-0.3-0.7-0.7-0.9-1.2c-0.1-0.6,0-1,0.2-1.4c0.3-0.4,0.7-0.7,1.3-0.9c8.8-2.7,16.5-5.8,23.2-9.5
	L326.3,16L326.3,16z M338.2,52.6c-0.1-0.4,0-0.9,0.2-1.4c0.3-0.5,0.6-0.8,1.1-0.9c0.5-0.1,1.1,0,1.6,0.3c5.3,3,10.8,7.2,16.5,12.7
	c0.4,0.4,0.7,0.9,0.7,1.3c0,0.6-0.2,1-0.6,1.4c-0.4,0.4-0.8,0.6-1.3,0.6c-0.5,0-1-0.2-1.5-0.7c-5.4-5.3-10.7-9.3-15.8-12.1
	C338.6,53.5,338.3,53.1,338.2,52.6L338.2,52.6z"/>
<path class="st1" d="M116.2,73.1c-4.9,0-9.7-1-14.1-2.8c-4.3-1.8-8.2-4.4-11.5-7.7c-3.3-3.3-6-7.1-7.8-11.4c-1.9-4.4-2.9-9.1-2.9-14
	c0-4.9,1-9.6,2.9-14c1.8-4.3,4.4-8.1,7.8-11.4S97.7,5.8,102,4c4.5-1.9,9.2-2.8,14.1-2.8c4.9,0,9.7,1,14.1,2.8
	c4.3,1.8,8.2,4.4,11.5,7.7c3.3,3.3,6,7.1,7.8,11.4c1.9,4.4,2.9,9.1,2.9,14c0,4.9-1,9.6-2.9,14c-1.8,4.3-4.4,8.1-7.8,11.4
	c-3.3,3.3-7.2,5.9-11.5,7.7C125.8,72.2,121.1,73.1,116.2,73.1L116.2,73.1z M116.2,6.1c-17.3,0-31.3,13.9-31.3,31
	c0,17.1,14,31,31.3,31c17.3,0,31.3-13.9,31.3-31C147.5,20.1,133.4,6.1,116.2,6.1z M136.9,39.6L136.9,39.6l-20.5-0.1
	c-1.4,0-2.5-1.1-2.5-2.5l0-20.3c0-1.4,1.1-2.5,2.5-2.5c0,0,0,0,0,0h0c1.4,0,2.5,1.1,2.5,2.5l0,17.8l18,0.1c1.4,0,2.5,1.1,2.5,2.5
	l0,0C139.4,38.5,138.3,39.6,136.9,39.6L136.9,39.6z"/>
</svg>
