<?xml version="1.0" standalone="no"?><!DOCTYPE svg PUBLIC "-//W3C//DTD SVG 1.1//EN" "http://www.w3.org/Graphics/SVG/1.1/DTD/svg11.dtd"><svg t="1533287514735" class="icon" style="" viewBox="0 0 1837 1024" version="1.1" xmlns="http://www.w3.org/2000/svg" p-id="3095" xmlns:xlink="http://www.w3.org/1999/xlink" width="358.7890625" height="200"><defs><style type="text/css"></style></defs><path d="M907.84654 839.956346c0.278535-7.933996 0.520581-14.848724 0.931694-26.57761-13.681065 2.520196-25.352785 4.258305-36.761781 7.057036-3.074834 0.755329-7.274756 4.618333-7.463284 7.296649-0.201908 2.810895 3.490812 8.008191 6.036551 8.385247 3.329043 0.482875 7.528965-2.251392 10.778947-4.449265 6.450097-4.383585 12.507325-9.338835 19.83195-12.500027-3.082132 20.610389-7.345302 23.983219-24.632729 25.431845-12.930601 1.087382-24.76409 2.65399-37.116944 10.77165-12.346772 8.111578-30.315333 7.538695-45.740588 11.121947-47.951842 11.129245-95.856247 22.461614-143.795926 33.641944-50.008623 11.666854-100.040357 23.252216-150.957565 35.083272-0.825875-9.007999-1.462006-15.917861-2.399781-26.150685-15.48972 3.599064-29.910302 6.946352-46.296443 10.753405 8.589588 12.049992 13.863512 18.788355 23.075851 4.171946 3.169706-5.034311 11.963634-6.513345 22.03104-11.534276-6.276164 17.247289-11.424808 26.151901-27.370645 27.233201-14.093395 0.959669-27.689318 7.902372-41.72433 11.326287-30.773883 7.505855-61.663315 14.548295-92.5418 21.612629-52.450976 12.006205-104.89587 24.036736-157.433204 35.640343-7.301514 1.615261-15.379035 2.2222-22.655007 0.892772-12.012287-2.191792-22.05415-7.235834-13.704175-19.190954-19.381915-25.896476-16.041925-56.611975-27.810949-83.029032 5.969654-2.81576 9.988345-4.707123 14.007037-6.594838-0.183663-1.115357-0.367326-2.227065-0.550989-3.342422-4.595223 0.10217-9.184364 0.20434-18.096274 0.411113 4.321553-7.008384 7.398819-12.007421 8.347542-13.537541-4.135457-7.584915-9.318158-14.030146-11.336018-21.342608-6.855128-24.834636-12.777346-49.936861-18.719025-75.018409-17.456494-73.653708-34.80717-147.329309-52.03743-221.036534-1.811087-7.758847-7.521667-17.387165 2.289097-19.074188-3.245118-5.31163-8.314701-10.783813-10.172008-17.185257-5.487995-18.925798-9.919016-38.170269-14.330575-57.392847-1.976505-8.602967-7.085011-17.396895 2.072594-25.939047 1.727162-1.609179-1.24307-9.740218-3.70245-13.884189-2.128544-3.579603-9.258559-5.528133-9.531012-8.616347-0.696946-7.819663-0.643428-16.815498 2.745214-23.494262 2.183278-4.311822 10.641504-5.820048 16.57102-7.70533 2.816976-0.895205 6.589973 1.232123 9.411814 0.344216 28.325449-8.91191 56.542646-18.160738 86.702291-27.937446-0.170284 6.886752-0.272454 10.966259-0.381922 15.275649 2.148005-0.2834 3.765699-0.113117 3.977337-0.578964 8.986105-19.857492 28.690342-21.561544 45.59828-23.030847 26.25772-2.284232 49.969702-13.053449 75.335866-17.663267 3.655014-0.664106 7.378142-0.964535 11.860248-1.533768 3.016451 7.789255-7.243132 22.122263 8.973942 21.531136-0.752896-7.342869-4.758208-17.58664-1.449843-21.280576 4.416425-4.929708 14.471667-4.957683 22.175781-6.773636 37.772536-8.914343 75.514663-17.964912 113.366259-26.519227 73.624516-16.634268 147.373096-32.738225 220.938013-49.623053 15.632028-3.589334 30.7155-9.567502 48.153749-15.116312-0.190961 10.87382-9.521282 23.126936 6.146019 23.963758-0.360028-6.898916-2.349913-13.683498-0.436656-19.086351 1.309967-3.703667 7.735737-6.850263 12.405155-7.9194 60.380107-13.823374 120.897656-27.031294 181.292359-40.780473 59.34381-13.511998 118.496659-27.863251 177.93899-40.943458 14.508157-3.1916 30.06599-1.543499 44.636178-4.549003 10.628125-2.194225 20.211439-11.417511 30.651035-12.185003 27.835275-2.056782 52.547064-15.132124 79.701206-19.543684 28.661151-4.656038 56.734823-12.843027 85.122303-19.234741 11.834705-2.666154 24.084173-5.318928 32.694438 6.968245 3.820433 5.44664 6.84783 11.452784 11.823758 19.89763-48.810557 7.68222-91.077362 25.633753-136.332642 25.592398-0.083925-1.33186-0.169067-2.668586-0.251776-3.998014-2.467895 3.149029-4.54657 8.567694-7.4645 9.067598-21.400991 3.670826-43.099977 5.666793-64.418259 9.695214-8.177258 1.541066-15.257404 8.55918-23.443177 10.457841-108.054629 25.038977-216.15183 49.941726-324.491076 73.72547-9.552906 2.098136-24.125527-0.627616-30.545216-6.982841-7.492475-7.429227-11.994042-5.885729-19.481652-3.835028-7.347734 2.014211-15.078606 3.093079-22.701227 3.52122-10.800841 0.610588-11.616986 5.671658-7.767362 14.22354 12.203247 1.671211 25.008569-13.715122 39.643222 2.947121-8.600535 1.99475-14.185834 3.319312-19.78573 4.59279-115.639544 26.347727-231.22922 52.928986-347.019587 78.598012-9.88131 2.196658-24.123094 2.072594-31.126613-3.510273-17.810441-14.205295-33.03987 0.688432-49.255727 0.645861-1.553229-0.002433-3.128352 6.441583-4.932141 10.422568 13.938923 2.931309 25.254264-11.659556 38.943843 1.716215-95.412294 22.168483-188.428455 43.781112-282.544161 65.649166 1.240637 7.51072 1.817169 12.82235 3.007937 17.994104 13.817292 59.927639 27.980016 119.77865 41.336327 179.809676 1.982587 8.914343 0.260291 18.655777 0.25056 30.786046 10.634206 7.125149 15.713521 20.015612 18.909986 55.98071-4.883488 2.132193-10.120923 4.424939-15.360791 6.72255-0.150823 1.076435-0.301645 2.145572-0.446386 3.217142 6.319952 1.306318 12.636254 2.615068 19.59112 4.051532 11.567117 49.793336 23.13545 100.022112 34.93245 150.202235 7.777092 33.06298 15.585808 66.124743 24.346896 98.935947 0.801549 2.98726 9.239098 6.583891 13.183594 5.6972 85.701267-19.323532 171.196978-39.578757 256.886083-58.976484 110.329131-24.969647 220.776244-49.418713 331.231871-73.813044 6.276164-1.385378 13.465778 1.097112 19.602067-0.549773 10.504061-2.830356 20.216304-8.782981 30.769017-11.220468 168.54542-38.903705 337.178415-77.409676 505.768839-116.123636 65.194265-14.972787 130.326499-30.246004 194.804357-45.230954 7.151908 12.519488 24.885721 14.415717 28.546817 3.723128 3.685422-10.720564 10.921256-10.776515 18.390621-12.508541 74.8761-17.409058 149.800853-34.662429 224.701279-51.963235 4.705907-1.089815 9.41303-2.184494 16.541829-3.844759-11.117082-47.861835-21.90576-94.236121-32.670111-140.622571-10.667047-45.999663-21.930086-91.877694-31.805314-138.050073-9.901987-46.208868-17.01619-93.046569-27.914336-139.001228-10.67921-45.038777-24.593807-89.311278-36.101324-130.437183-10.752189-5.57192-19.812489-10.74854-29.264441-15.032387-8.550666-3.877599-17.064842-13.149537-26.95345-1.341591-1.337942 1.587286-6.458611 0-9.814413-0.114333-0.133794 1.438896-0.279752 2.877792-0.413546 4.31912 8.914343 0.683567 17.817739 1.364701 27.511737 2.104218-1.190768 11.624283-6.566863 16.305864-19.301638 14.65533-5.340821-0.692081-11.20344 5.002687-17.1512 6.204402-33.035005 6.687277-66.215966 12.721396-99.250971 19.392861-6.118044 1.234556-11.677801 5.401637-17.794629 6.43915-23.146397 3.937198-46.414425 7.149476-69.913552 10.670696-0.012163 0.068113-0.340567 2.764675-0.681134 5.458803-2.383969-0.565585-5.693551-0.341783-7.01933-1.851225-6.543753-7.491259-12.564492-15.4435-20.896222-25.896476 33.558018-7.796553 65.668627-15.655138 97.961681-22.658656 38.799102-8.419304 77.818356-15.915428 116.643001-24.260538 8.941102-1.920555 17.297158-6.661735 26.24799-8.335379 11.591443-2.160168 25.822281-10.913958 32.061956 8.595669 0.121631 0.392868 3.927468-0.395301 7.699248-0.829524-2.652774-5.135265-4.731449-9.163686-8.246588-15.950701 10.727862-0.451251 20.202924-0.851418 30.468589-1.285641-1.216311 6.011009-2.067729 10.253501-2.91793 14.499642 2.335317 1.280775 4.670634 2.563983 7.005951 3.847191 0.559503-4.871325 1.142116-9.741434 1.921771-16.448173 5.315279 4.096535 8.429035 6.504831 11.42116 8.817038-1.216311 2.138275-1.569041 3.594199-2.238012 3.772996-2.639395 0.704244-5.388257 0.999808-8.087251 1.44741 1.374431 2.425324 2.432622 5.127967 4.195056 7.224887 3.648933 4.30939 9.97375 7.726007 11.166951 12.509758 10.3131 41.534585 19.73951 83.292972 29.446887 125.098794-4.69496 2.533576-8.647971 4.666985-15.217266 8.217397 23.912673 7.549642 22.624599 28.129623 26.698025 44.334533 22.831372 90.804908 44.553469 181.887135 66.288945 272.965713 7.638433 31.964651 14.317196 64.160401 21.224626 96.292903 4.707123 21.866838 2.458164 25.665377-19.047429 31.436772-55.426072 14.885213-110.623478 30.87362-166.464312 44.007345-99.115961 23.30695-198.646683 44.755377-297.982796 67.123334-52.179738 11.751996-104.237846 24.098768-156.468669 35.640343-38.583815 8.521474-77.453463 15.731765-116.019033 24.339598-36.624338 8.167528-73.001765 17.421221-109.514203 26.103249C949.240033 830.42655 929.275506 834.975553 907.84654 839.956346" p-id="3096"></path><path d="M374.444333 617.218192c-12.139999 10.243771-23.657247 18.847954-35.280315 26.977776l-17.357973-76.383109c20.98258-4.269251 37.327366-6.985274 51.41103-8.689325l-6.714036-29.542976c-9.183147-1.684591-18.459951-2.675884-27.85352-2.953203-7.460851 2.103002-15.67095 4.280198-24.711789 6.552267l-12.721396-55.981926c-1.832981-8.065358-0.884258-19.257851 3.472568-24.238644 9.078545-10.544199 6.469558-15.439851-9.81198-10.243771-11.170599 3.535816-29.888408 6.790664-44.099785 3.535816 6.771203 14.426664 15.56878 44.358859 27.103056 95.121595-25.726192 5.346903-44.919579 8.710002-60.897039 10.844628l9.16247 40.325572c15.331599-4.980793 33.98616-10.716916 59.497065-17.012541l20.806215 91.563886c-19.041347 12.807754-39.354956 24.408928-64.41461 37.088969 9.295048 12.355286 19.082702 29.091725 23.741173 43.00024 11.084241-10.501628 29.587979-25.682405 49.621837-40.712359l21.021502 92.513825c3.125919 13.757693-15.289028 24.92586-51.626317 29.691366 11.148706 13.931625 20.247928 29.82516 24.58286 42.310592 60.747433-20.290499 72.695255-37.972011 66.4422-65.489829l-28.029885-123.349739c14.038661-10.673128 27.452137-19.707886 37.976876-26.091086C380.070987 646.373165 375.888094 632.356398 374.444333 617.218192z" p-id="3097"></path><path d="M640.417474 696.477877c2.607771 48.800827-4.056397 56.800504-32.089931 65.16629-14.966706 4.39818-65.362116 15.352276-86.193873 18.088976-8.281861 0.884258-14.577486-2.673451-20.507002-28.76697l-31.154588-137.107432 88.243357-20.052102 7.350167 58.699165c1.316048 10.17809-12.20568 18.738486-46.536056 23.546563 13.627548 13.865944 20.592144 24.756792 25.832011 39.03385 50.569343-18.976883 63.272494-33.337866 59.196636-57.856262l-17.72165-108.729682c-15.698925 5.563406-39.678495 12.009854-82.851451 21.820618-40.799933 9.270722-60.575933 12.267712-78.409483 12.828431 27.885144-50.740843 36.792189-75.216667 53.830272-142.949373 15.073741 29.005366 35.687779 47.270708 62.059832 66.723168 32.99365 24.433254 53.932442 33.145689 98.051688 45.072834 2.610203-17.056328 7.010816-35.020024 14.320845-51.150739-30.59995 1.465655-56.866184-6.536455-91.36806-26.634777-18.99756-11.149922-54.449375-42.010163-70.880519-68.211933 10.352022-9.336403 10.179306-12.290822 1.166442-10.242554-9.01408 2.048268-42.56845 3.685422-52.229607 2.887522 1.035081 28.702505-8.326865 79.723099-19.06689 107.110772-18.093841 45.521652-37.244657 79.809457-55.726501 99.474772 14.836561 1.617694 27.948392 6.62038 39.959463 13.372122 7.224887-12.120538 12.356503-20.271038 17.641374-29.954089 4.743613 9.899555 10.41527 26.072841 15.696492 49.320191l29.862866 131.413881c10.026051 44.121679 18.715376 51.626317 43.558527 48.975975 21.04826-1.789193 78.301232-13.304009 117.872691-25.787008 44.316288-13.561867 49.879694-19.814921 53.331585-81.468505C671.405428 709.891354 650.422848 703.184616 640.417474 696.477877z" p-id="3098"></path><path d="M1052.664167 330.390184c6.576593-3.9895 5.02458-8.624861-0.518148-8.863258-7.547209-0.279752-28.787647-5.930732-47.505456-13.651874-7.571535 39.138453-20.361045 79.464025-37.376018 107.777311 15.462961-0.020677 31.204457 3.387426 42.956453 11.193709C1034.700471 358.919973 1046.926828 333.690036 1052.664167 330.390184z" p-id="3099"></path><path d="M1120.152395 572.496873c5.972087 57.017007 0.192177 62.322555-51.518065 74.073335-35.583176 8.083602-45.566656 5.862619-49.771443-12.641119L986.305892 490.65496l34.158876-7.762496c35.105166-7.977783 70.535087-14.531267 102.603124-18.32494l-10.134303-44.59604c-30.665631 9.961586-65.449691 19.362454-100.554856 27.340237l-73.061364 16.601428L906.005045 317.317274c-1.941232-8.539719-1.853658-12.549896 5.346903-18.177767 6.254271-5.412584 3.861787-9.358296-6.36009-6.038984-16.754683 5.304332-31.20324 7.58978-50.352839 8.947183 6.316303 19.02067 11.148706 35.883605 15.784067 56.283571l26.196905 115.284382-73.061364 16.602644c-35.106382 7.977783-70.537519 14.532483-102.497305 18.800518l10.134303 44.59604c30.557379-10.435948 65.341439-19.838031 100.447821-27.814598l20.399967-4.636577c24.278782 111.231634 10.064973 151.879528-92.411655 208.094986 14.232054 7.741819 28.702505 20.918115 38.102156 33.750195 24.041602-17.04903 43.339591-32.486448 58.524016-47.589381-2.420459-11.297096-2.3937-22.914081-2.396133-34.419166-0.001216-7.843989 12.161893-7.842773 12.163109 0 0.002433 7.739386-0.10217 15.576078 0.724921 23.291138 29.100239-33.132309 38.863566-66.16853 35.853197-112.826217-3.375263-0.734652-6.776068-1.390243-10.218228-1.905959-7.735737-1.160361-4.435886-12.879516 3.232954-11.728886 1.98137 0.29678 3.948145 0.638563 5.902757 1.011971-0.614237-5.803019-1.393892-11.80673-2.336533-18.046405-1.334293-1.733243-1.663913-4.173163-0.97913-6.205618-2.126111-12.982903-4.885921-26.927907-8.20645-42.052734l55.507565-12.613144 36.654746 161.304722c8.19307 36.057537 15.912996 39.291708 93.243611 21.718448 83.97289-19.081486 92.275428-26.457195 93.80798-92.163527C1153.642299 590.332856 1137.792552 586.451608 1120.152395 572.496873z" p-id="3100"></path><path d="M809.541859 472.448002l35.690211-29.563653c-24.55975-26.848847-45.455972-48.542969-69.046322-71.122565l-32.327112 26.803844C770.23069 418.018088 789.919115 440.985687 809.541859 472.448002z" p-id="3101"></path><path d="M1504.364337 280.634553c3.496894-0.794251 6.801611-1.534984 9.964019-2.233147-5.266626-2.033672-10.652451-3.780294-16.223155-5.081747-7.636-1.784328-4.396964-13.510782 3.232954-11.728886 11.688748 2.731834 22.64406 7.310029 33.341515 12.513407 22.442153-4.450482 34.696485-5.652197 47.724392-5.714229l-9.702512-42.697379c-16.432361 6.726199-31.873428 11.233848-75.99389 21.259899-45.072834 10.241338-60.468897 12.742073-79.142919 13.992441l9.703729 42.697379C1443.96112 295.856684 1458.819574 290.984143 1504.364337 280.634553z" p-id="3102"></path><path d="M1508.39884 219.348295c-12.334609-19.149599-24.581644-42.310592-32.797824-60.899471l-37.372369 19.968176c13.282115 18.934312 23.828747 38.988847 31.591244 62.171733L1508.39884 219.348295z" p-id="3103"></path><path d="M1652.222741 511.962294c-19.171493 7.848854-34.610127 12.35407-69.244581 20.224818-9.481144-195.417378-9.372892-216.894996-5.382176-221.294392 5.56219-6.254271 4.333716-9.466548-3.365532-8.21618-11.967283 2.220984-31.548673 1.680942-45.650581-1.100761 9.981047 57.103365 20.221169 157.054931 22.612436 237.835005l-25.619157 5.821264c-34.15766 7.762496-49.661975 9.78887-69.761513 11.36156l9.595477 42.224234c19.172709-7.847638 36.401753-13.260222 96.17857-26.842766 60.726755-13.799047 79.659851-16.106389 100.232534-17.787331L1652.222741 511.962294z" p-id="3104"></path><path d="M1479.864186 333.100125l-32.864721 13.456048c10.422568 25.962157 19.959662 52.579905 28.512761 79.550383 3.934766-2.039753 7.775876-3.961525 11.410213-5.782342 6.991355-3.501759 13.15197 6.988923 6.138721 10.502845-4.634145 2.320721-9.267073 4.691311-13.851349 7.15799 7.837908 25.690919 14.773312 51.660374 20.680935 77.660236l34.610127-12.355286C1519.969606 454.703242 1497.955595 386.364813 1479.864186 333.100125z" p-id="3105"></path><path d="M1283.304692 302.428412c-4.420074-19.452461-6.209267-29.522299-6.726199-38.385556-20.335502 7.115419-37.782266 11.578064-57.706655 16.106389-16.605077 3.772996-33.79155 7.179883-52.834114 9.012864 3.79489 10.113625 6.532806 19.968176 10.521089 37.523192l53.147922 233.890508c5.174187 22.771773 7.396387 34.740272 13.195757 66.850881l36.057537-8.19307-15.74028-69.266474 39.852427-9.054218 7.547209 33.210153 34.158876-7.762496c-7.570319-26.718702-11.450351-43.79814-16.517502-66.095552L1283.304692 302.428412zM1255.241967 514.858331l-44.738348-196.885465 39.852427-9.055435 44.738348 196.885465L1255.241967 514.858331z" p-id="3106"></path><path d="M1422.738927 494.481474c-3.516355 0.734652-7.415848-1.132385-6.941486-5.658278 0.448819-4.281414 1.444977-8.33173 2.889955-12.17284l-9.903204-43.58042c7.678571-5.736122 16.086928-12.636254 25.920802-19.859925-5.326226-10.264448-7.95589-19.645854-11.406564-34.826631-8.301322 7.374493-15.504315 13.002364-22.707309 18.631451L1383.881442 323.477889c15.289028-2.975097 29.263224-5.152293 38.23595-5.194864l-9.055435-39.851211c-8.109145 3.837461-21.652767 7.912103-36.725292 11.837138L1361.781073 226.221668c-1.832981-8.065358-3.104025-20.249144-0.279752-25.381976 5.974519-8.841364 2.264771-11.989177-6.639841-9.466548-9.747516 3.213493-28.573576 5.99398-42.503985 6.16548 5.714229 14.16759 14.662628 42.56845 28.031101 101.39776-17.18769 3.405671-31.161886 5.584083-41.187937 5.368796l9.054218 39.851211c8.949616-4.528326 23.440744-8.81947 39.463208-12.959793l20.483892 90.140802c-11.990393 8.711219-25.03776 17.16458-41.298621 26.846415 9.381406 8.345109 20.054534 22.384986 27.666208 36.122002 6.298058-7.41828 13.544838-15.051848 22.579596-23.591567l22.530943 99.153666c4.850648 21.349906-1.597016 30.298305-40.19786 36.076998 15.804744 16.862935 24.515963 28.854544 28.635608 40.391253 54.23652-24.798147 57.858694-39.59092 49.989162-74.222941L1422.738927 494.481474z" p-id="3107"></path></svg>