<?xml version="1.0" encoding="utf-8"?>
<!-- Generator: Adobe Illustrator 21.0.0, SVG Export Plug-In . SVG Version: 6.00 Build 0)  -->
<svg version="1.1" id="图层_1" xmlns="http://www.w3.org/2000/svg" xmlns:xlink="http://www.w3.org/1999/xlink" x="0px" y="0px"
	 viewBox="0 0 200 200" style="enable-background:new 0 0 200 200;" xml:space="preserve">
<path d="M170.1,5H29.9c-5.3,0-9.5,4.3-9.5,9.5v174.3c0.4,7.9,7.3,7.2,12.3,3.8l62.7-34.7c2.9-1.6,6.4-1.6,9.2,0l62.8,34.8
	c6.5,3.4,12.5,2,12.3-5.7V14.5C179.6,9.3,175.4,5,170.1,5z M101.3,77.3c-1.5,1.2-3.2,3.7-5.1,7.4c-2.6,5-5.5,11.1-8.6,18
	c-3.2,6.9-6.4,14.3-9.7,22.2c-1.5,2.8-6.5,2.9-7.8,0c-1.8-3.6-4.2-8.7-7.3-15.1c-11.2-23-18.4-34.5-21.9-34.5h-0.4v-2.5h29.4v2.5
	c-1.8,0.3-3,0.6-3.7,1.1s-1,1.3-1,2.5c0,1.6,1.1,5,3.4,10.4c2.3,5.3,5.5,11.8,9.6,19.8c4.3-9.6,7.3-16.5,8.9-20.7
	c1.6-4.2,2.4-7.1,2.4-8.8c0-1.3-0.4-2.4-1.2-3c-0.8-0.7-2.2-1.1-4.1-1.3v-2.5h22.8v2.5C104.6,75.5,102.8,76.1,101.3,77.3z
	 M157.6,111.4v15.8h-50.7l0-13.2c15-24.6,24-39.8,26.8-45.6c2.8-5.8,4.3-10.4,4.3-13.7c0-2.5-0.4-4.4-1.3-5.6
	c-0.9-1.2-2.2-1.9-3.9-1.9c-1.8,0-3.1,0.7-3.9,2.1c-0.9,1.4-1.3,4.1-1.3,8.2v8.8h-20.7v-3.4c0-5.2,0.3-9.3,0.8-12.2
	c0.5-3,1.8-5.9,3.9-8.8c2.1-2.9,4.8-5.1,8.2-6.6c3.3-1.5,7.4-2.2,12-2.2c9.2,0,16.1,2.3,20.8,6.8c4.7,4.5,7,10.3,7,17.3
	c0,5.3-1.3,10.9-4,16.8c-2.6,5.9-10.4,18.4-23.4,37.6H157.6z"/>
</svg>
