<?xml version="1.0" encoding="utf-8"?>
<!-- Generator: Adobe Illustrator 21.0.0, SVG Export Plug-In . SVG Version: 6.00 Build 0)  -->
<svg version="1.1" id="图层_1" xmlns="http://www.w3.org/2000/svg" xmlns:xlink="http://www.w3.org/1999/xlink" x="0px" y="0px"
	 viewBox="0 0 200 200" style="enable-background:new 0 0 200 200;" xml:space="preserve">
<path d="M170.1,5H29.9c-5.3,0-9.5,4.3-9.5,9.5v174.3c0.4,7.9,7.3,7.2,12.3,3.8l62.7-34.7c2.9-1.6,6.4-1.6,9.2,0l62.8,34.8
	c6.5,3.4,12.5,2,12.3-5.7V14.5C179.6,9.3,175.4,5,170.1,5z M112.9,75.3c-2.2,0.2-4.1,0.9-5.6,2.1c-1.5,1.2-3.2,3.7-5.1,7.4
	c-2.6,5-5.5,11.1-8.6,18c-3.2,6.9-6.4,14.3-9.7,22.2c-1.5,2.8-6.5,2.9-7.8,0c-1.8-3.6-4.2-8.7-7.3-15.1
	c-11.2-23-18.4-34.5-21.9-34.5h-0.4v-2.5h29.4v2.5c-1.8,0.3-3,0.6-3.7,1.1s-1,1.3-1,2.5c0,1.6,1.1,5,3.4,10.4
	c2.3,5.3,5.5,11.8,9.6,19.8c4.3-9.6,7.3-16.5,8.9-20.7c1.6-4.2,2.4-7.1,2.4-8.8c0-1.3-0.4-2.4-1.2-3c-0.8-0.7-2.2-1.1-4.1-1.3v-2.5
	h22.8V75.3z M153.7,127.2h-23.5V76.7c0-7.3-0.2-11.7-0.5-13.1c-0.3-1.5-1.3-2.6-2.9-3.3c-1.6-0.8-5.1-1.1-10.5-1.1H114v-11
	c11.4-2.4,20-7.5,25.9-15.1h13.8V127.2z"/>
</svg>
