<?xml version="1.0" encoding="utf-8"?>
<!-- Generator: Adobe Illustrator 21.0.0, SVG Export Plug-In . SVG Version: 6.00 Build 0)  -->
<svg version="1.1" id="图层_1" xmlns="http://www.w3.org/2000/svg" xmlns:xlink="http://www.w3.org/1999/xlink" x="0px" y="0px"
	 viewBox="0 0 200.2 200" style="enable-background:new 0 0 200.2 200;" xml:space="preserve">
<style type="text/css">
	.st0{fill:#FA4848;}
	.st1{fill-rule:evenodd;clip-rule:evenodd;fill:#FA4848;}
</style>
<path class="st0" d="M29.5,29.2C44.7,14,64.3,4.1,85.9,1C112.3-2.8,138.7,4,160,20c21.4,16,35.2,39.4,39,65.8
	c7.8,54.6-30.2,105.3-84.8,113.2c-22.9,3.3-46.3-1.5-66.1-13.5c-3.4-2.1-4.4-6.4-2.4-9.8c2.1-3.3,6.4-4.4,9.8-2.4
	c16.9,10.3,37,14.4,56.6,11.6c46.8-6.7,79.4-50.2,72.7-97c-3.3-22.7-15.1-42.7-33.5-56.4c-18.3-13.7-40.9-19.5-63.5-16.2
	c-46.8,6.7-79.4,50.2-72.7,97c1.8,12.2,6,23.7,12.7,34c2.1,3.3,1.2,7.8-2.1,9.9c-3.3,2.1-7.7,1.2-9.9-2.1
	c-7.8-12.1-12.7-25.4-14.8-39.7c-3.8-26.4,2.9-52.8,19-74.1C23,36.2,26.2,32.5,29.5,29.2L29.5,29.2z"/>
<path class="st1" d="M72.1,59.7l68.3,68.3c2.9,2.9,2.9,7.7,0,10.6c-2.9,2.9-7.7,2.9-10.6,0L61.4,70.3c-2.9-2.9-2.9-7.7,0-10.6
	C64.4,56.8,69.1,56.8,72.1,59.7z"/>
<path class="st1" d="M140.4,59.7c2.9,2.9,2.9,7.7,0,10.6l-68.3,68.3c-2.9,2.9-7.7,2.9-10.6,0c-2.9-2.9-2.9-7.7,0-10.6l68.3-68.3
	C132.7,56.8,137.5,56.8,140.4,59.7z"/>
</svg>
