<?xml version="1.0" encoding="utf-8"?>
<!-- Generator: Adobe Illustrator 21.0.0, SVG Export Plug-In . SVG Version: 6.00 Build 0)  -->
<svg version="1.1" id="图层_1" xmlns="http://www.w3.org/2000/svg" xmlns:xlink="http://www.w3.org/1999/xlink" x="0px" y="0px"
	 viewBox="0 0 200.2 200" style="enable-background:new 0 0 200.2 200;" xml:space="preserve">
<style type="text/css">
	.st0{fill:#62BE59;}
</style>
<path class="st0" d="M29.4,29.2C44.6,14,64.2,4.1,85.8,1C112.2-2.8,138.6,4,159.9,20c21.4,16,35.2,39.4,39,65.8
	c7.8,54.6-30.2,105.3-84.8,113.2c-22.9,3.3-46.3-1.5-66.1-13.5c-3.4-2.1-4.4-6.4-2.4-9.8c2.1-3.3,6.4-4.4,9.8-2.4
	c16.9,10.3,37,14.4,56.6,11.6c46.8-6.7,79.4-50.2,72.6-97c-3.3-22.7-15.1-42.7-33.5-56.4c-18.3-13.7-40.9-19.5-63.5-16.2
	c-46.8,6.7-79.4,50.2-72.7,97c1.8,12.2,6,23.7,12.7,34c2.1,3.3,1.2,7.8-2.1,9.9c-3.3,2.1-7.7,1.2-9.9-2.1
	C8.1,141.9,3.1,128.5,1,114.2C-2.8,87.8,4,61.5,20,40.1C22.9,36.2,26.1,32.5,29.4,29.2L29.4,29.2z M157.3,55.4
	c-2.6-2.5-7.4-3-10.5,0l-62.3,65.8L53.1,90.7c-2.4-2.3-7.1-2.9-10,0.2c-2.7,2.9-2.7,7.6-0.3,10l37.8,35.9c0,0,0,0,0.1,0
	c0,0,0,0,0,0.1c0.4,0.4,0.8,0.6,1.3,0.8c0.2,0.1,0.4,0.3,0.6,0.4c0.7,0.3,1.5,0.4,2.2,0.4c0.8,0,1.6-0.2,2.3-0.5
	c0.2-0.1,0.4-0.3,0.7-0.4c0.5-0.3,0.9-0.5,1.3-0.9c0,0,0,0,0-0.1c0,0,0,0,0.1,0l68.8-70.7C161,61.9,159.7,57.6,157.3,55.4
	L157.3,55.4z"/>
</svg>
